<?xml version="1.0" encoding="UTF-8"?>
<svg id="Layer_2" data-name="Layer 2" xmlns="http://www.w3.org/2000/svg" xmlns:xlink="http://www.w3.org/1999/xlink" viewBox="0 0 3060.83 701.72">
  <defs>
    <style>
      .cls-1 {
        fill: url(#linear-gradient);
      }

      .cls-2 {
        font-size: 464.86px;
      }

      .cls-2, .cls-3 {
        font-family: ArchivoBlack-Regular, 'Archivo Black';
      }

      .cls-4 {
        clip-rule: evenodd;
        fill: none;
      }

      .cls-5 {
        letter-spacing: 0em;
      }

      .cls-6 {
        letter-spacing: -.03em;
      }

      .cls-3 {
        font-size: 238.57px;
      }

      .cls-7 {
        clip-path: url(#clippath);
      }

      .cls-8 {
        letter-spacing: .02em;
      }
    </style>
    <clipPath id="clippath">
      <path class="cls-4" d="M256.09,544.12v-193.27h-120.43c0,84.84,49.1,158.22,120.43,193.27M290.65,254.22v303.3c19.11,5.56,39.31,8.54,60.22,8.54s41.1-2.98,60.21-8.54V254.22h-120.43ZM445.64,157.59v386.54c71.33-35.04,120.43-108.42,120.43-193.27s-49.1-158.22-120.43-193.27ZM101.1,352.28c0-.47,0-.94,0-1.42,0-137.94,111.83-249.77,249.77-249.77s249.76,111.83,249.76,249.77-111.82,249.77-249.76,249.77c-.48,0-.94,0-1.42,0-57.14-.32-109.72-19.84-151.66-52.41l-62.91,62.9,13.61,13.6-77,77h279.37c193.77,0,350.86-157.08,350.86-350.85C701.73,157.09,544.63,0,350.86,0,157.1,0,0,157.09,0,350.86c0,.56,0,1.13,0,1.69v277.69l76.99-77,13.61,13.6,62.91-62.9c-32.58-41.93-52.1-94.52-52.42-151.66Z"/>
    </clipPath>
    <linearGradient id="linear-gradient" x1="30.58" y1="671.16" x2="633.34" y2="68.36" gradientUnits="userSpaceOnUse">
      <stop offset="0" stop-color="#ff5e25"/>
      <stop offset="1" stop-color="#ffa70e"/>
    </linearGradient>
  </defs>
  <g id="Layer_1-2" data-name="Layer 1">
    <g>
      <g class="cls-7">
        <rect class="cls-1" y="0" width="701.73" height="701.72"/>
      </g>
      <g>
        <text class="cls-2" transform="translate(840.19 410.14)"><tspan x="0" y="0">ORANGE</tspan></text>
        <text class="cls-3" transform="translate(861.11 636.2)"><tspan x="0" y="0">B</tspan><tspan class="cls-8" x="185.61" y="0">r</tspan><tspan class="cls-5" x="295.35" y="0">o</tspan><tspan class="cls-6" x="454.47" y="0">k</tspan><tspan x="605.49" y="0">er HUB</tspan></text>
      </g>
    </g>
  </g>
</svg>